<svg width="42" height="37" viewBox="0 0 42 37" fill="none" xmlns="http://www.w3.org/2000/svg">
<path d="M36.7632 1.92682H5.23675C2.86915 1.92682 1 3.79597 1 6.16357V20.8676C1 23.2352 2.86915 25.1044 5.23675 25.1044H19.9408V32.581H7.35515C6.60748 32.581 6.10904 33.0794 6.10904 33.8271C6.10904 34.5748 6.60748 35.0732 7.35515 35.0732H35.1433C35.891 35.0732 36.3894 34.5748 36.3894 33.8271C36.3894 33.0794 35.891 32.581 35.1433 32.581H22.433V25.1044H36.7632C39.1308 25.1044 41 23.2352 41 20.8676V6.16357C41 3.92058 39.1308 1.92682 36.7632 1.92682ZM38.5078 20.8676C38.5078 21.8645 37.7601 22.6121 36.7632 22.6121H5.23675C4.23987 22.6121 3.49221 21.8645 3.49221 20.8676V6.16357C3.49221 5.16669 4.23987 4.41903 5.23675 4.41903H36.7632C37.7601 4.41903 38.5078 5.16669 38.5078 6.16357V20.8676Z" fill="white" fill-opacity="0.5"/>
<path d="M17.7944 6.60837H6.67291C5.88787 6.60837 5.3645 7.13689 5.3645 7.92966V18.2357C5.3645 19.0285 5.88787 19.557 6.67291 19.557H17.7944C18.5795 19.557 19.1028 19.0285 19.1028 18.2357V7.92966C19.1028 7.13689 18.4486 6.60837 17.7944 6.60837ZM16.486 16.9144H7.98132V9.25096H16.486V16.9144Z" fill="white" fill-opacity="0.5"/>
<path d="M35.1963 6.60837H24.0748C23.2897 6.60837 22.7664 7.13689 22.7664 7.92966V18.2357C22.7664 19.0285 23.2897 19.557 24.0748 19.557H35.1963C35.9813 19.557 36.5047 19.0285 36.5047 18.2357V7.92966C36.5047 7.13689 35.9813 6.60837 35.1963 6.60837ZM33.8878 16.9144H25.3832V9.25096H33.8878V16.9144Z" fill="white" fill-opacity="0.5"/>
<path d="M30.7596 14.835C30.7596 15.153 30.6936 15.447 30.5616 15.717C30.4296 15.981 30.2166 16.194 29.9226 16.356C29.6346 16.512 29.2476 16.59 28.7616 16.59C28.4856 16.59 28.1976 16.557 27.8976 16.491C27.6036 16.425 27.2796 16.314 26.9256 16.158L27.2586 15.231C27.5766 15.345 27.8436 15.435 28.0596 15.501C28.2816 15.561 28.5036 15.591 28.7256 15.591C29.0436 15.591 29.2836 15.528 29.4456 15.402C29.6136 15.27 29.6976 15.066 29.6976 14.79V14.664C29.6976 14.436 29.6256 14.253 29.4816 14.115C29.3436 13.971 29.1276 13.899 28.8336 13.899H27.8796V12.927H28.8336C29.1156 12.927 29.3226 12.861 29.4546 12.729C29.5866 12.591 29.6526 12.414 29.6526 12.198V12.072C29.6526 11.796 29.5746 11.598 29.4186 11.478C29.2686 11.352 29.0466 11.289 28.7526 11.289C28.5426 11.289 28.3296 11.319 28.1136 11.379C27.9036 11.433 27.6486 11.517 27.3486 11.631L27.0156 10.704C27.3516 10.548 27.6636 10.44 27.9516 10.38C28.2396 10.32 28.5186 10.29 28.7886 10.29C29.2506 10.29 29.6226 10.368 29.9046 10.524C30.1866 10.68 30.3906 10.89 30.5166 11.154C30.6486 11.418 30.7146 11.709 30.7146 12.027V12.153C30.7146 12.435 30.6426 12.684 30.4986 12.9C30.3606 13.11 30.1776 13.278 29.9496 13.404C30.1956 13.536 30.3906 13.713 30.5346 13.935C30.6846 14.151 30.7596 14.409 30.7596 14.709V14.835Z" fill="white" fill-opacity="0.5"/>
<path d="M14.796 16.5H11.088V15.645C11.088 15.213 11.145 14.853 11.259 14.565C11.373 14.271 11.526 14.031 11.718 13.845C11.91 13.653 12.12 13.5 12.348 13.386L12.96 13.08C13.194 12.96 13.383 12.834 13.527 12.702C13.677 12.564 13.752 12.387 13.752 12.171V12.009C13.752 11.787 13.674 11.613 13.518 11.487C13.368 11.355 13.125 11.289 12.789 11.289C12.585 11.289 12.378 11.319 12.168 11.379C11.964 11.439 11.715 11.523 11.421 11.631L11.088 10.704C11.424 10.554 11.73 10.449 12.006 10.389C12.288 10.323 12.561 10.29 12.825 10.29C13.311 10.29 13.698 10.368 13.986 10.524C14.28 10.68 14.49 10.89 14.616 11.154C14.748 11.412 14.814 11.697 14.814 12.009V12.171C14.814 12.495 14.748 12.771 14.616 12.999C14.49 13.227 14.322 13.419 14.112 13.575C13.902 13.731 13.674 13.869 13.428 13.989L12.816 14.295C12.594 14.403 12.429 14.553 12.321 14.745C12.219 14.937 12.162 15.183 12.15 15.483H14.796V16.5Z" fill="white" fill-opacity="0.5"/>
</svg>
