<svg width="43" height="37" viewBox="0 0 46 39" fill="none" xmlns="http://www.w3.org/2000/svg">
<path d="M27.8214 0.5H18.1786C17.7523 0.5 17.3435 0.700178 17.0421 1.0565C16.7408 1.41282 16.5714 1.89609 16.5714 2.4V36.6C16.5714 37.1039 16.7408 37.5872 17.0421 37.9435C17.3435 38.2998 17.7523 38.5 18.1786 38.5H27.8214C28.2477 38.5 28.6565 38.2998 28.9579 37.9435C29.2592 37.5872 29.4286 37.1039 29.4286 36.6V2.4C29.4286 1.89609 29.2592 1.41282 28.9579 1.0565C28.6565 0.700178 28.2477 0.5 27.8214 0.5ZM26.2143 34.7H19.7857V4.3H26.2143V34.7ZM11.75 10H2.10714C1.6809 10 1.27212 10.2002 0.970721 10.5565C0.669323 10.9128 0.5 11.3961 0.5 11.9V36.6C0.5 37.1039 0.669323 37.5872 0.970721 37.9435C1.27212 38.2998 1.6809 38.5 2.10714 38.5H11.75C12.1762 38.5 12.585 38.2998 12.8864 37.9435C13.1878 37.5872 13.3571 37.1039 13.3571 36.6V11.9C13.3571 11.3961 13.1878 10.9128 12.8864 10.5565C12.585 10.2002 12.1762 10 11.75 10ZM10.1429 34.7H3.71429V13.8H10.1429V34.7ZM43.8929 13.8H34.25C33.8238 13.8 33.415 14.0002 33.1136 14.3565C32.8122 14.7128 32.6429 15.1961 32.6429 15.7V36.6C32.6429 37.1039 32.8122 37.5872 33.1136 37.9435C33.415 38.2998 33.8238 38.5 34.25 38.5H43.8929C44.3191 38.5 44.7279 38.2998 45.0293 37.9435C45.3307 37.5872 45.5 37.1039 45.5 36.6V15.7C45.5 15.1961 45.3307 14.7128 45.0293 14.3565C44.7279 14.0002 44.3191 13.8 43.8929 13.8ZM42.2857 34.7H35.8571V17.6H42.2857V34.7Z" fill="white"/>
</svg>
