<svg width="44" height="37" viewBox="0 0 44 37" fill="none" xmlns="http://www.w3.org/2000/svg">
<path d="M26.6071 0H17.3929C16.9856 0 16.5949 0.194911 16.3069 0.541853C16.0189 0.888795 15.8571 1.35935 15.8571 1.85V35.15C15.8571 35.6407 16.0189 36.1112 16.3069 36.4581C16.5949 36.8051 16.9856 37 17.3929 37H26.6071C27.0144 37 27.4051 36.8051 27.6931 36.4581C27.9811 36.1112 28.1429 35.6407 28.1429 35.15V1.85C28.1429 1.35935 27.9811 0.888795 27.6931 0.541853C27.4051 0.194911 27.0144 0 26.6071 0ZM25.0714 33.3H18.9286V3.7H25.0714V33.3ZM11.25 9.25H2.03571C1.62842 9.25 1.2378 9.44491 0.9498 9.79185C0.661798 10.1388 0.5 10.6093 0.5 11.1V35.15C0.5 35.6407 0.661798 36.1112 0.9498 36.4581C1.2378 36.8051 1.62842 37 2.03571 37H11.25C11.6573 37 12.0479 36.8051 12.3359 36.4581C12.6239 36.1112 12.7857 35.6407 12.7857 35.15V11.1C12.7857 10.6093 12.6239 10.1388 12.3359 9.79185C12.0479 9.44491 11.6573 9.25 11.25 9.25ZM9.71429 33.3H3.57143V12.95H9.71429V33.3ZM41.9643 12.95H32.75C32.3427 12.95 31.9521 13.1449 31.6641 13.4919C31.3761 13.8388 31.2143 14.3093 31.2143 14.8V35.15C31.2143 35.6407 31.3761 36.1112 31.6641 36.4581C31.9521 36.8051 32.3427 37 32.75 37H41.9643C42.3716 37 42.7622 36.8051 43.0502 36.4581C43.3382 36.1112 43.5 35.6407 43.5 35.15V14.8C43.5 14.3093 43.3382 13.8388 43.0502 13.4919C42.7622 13.1449 42.3716 12.95 41.9643 12.95ZM40.4286 33.3H34.2857V16.65H40.4286V33.3Z" fill="white" fill-opacity="0.5"/>
</svg>
