<svg width="40" height="41" viewBox="0 0 40 41" fill="none" xmlns="http://www.w3.org/2000/svg">
<path d="M24.8125 32.25H15.3125C14.5625 32.25 13.875 32.875 13.875 33.6875C13.875 34.5 14.5 35.125 15.3125 35.125H24.875C25.625 35.125 26.3125 34.5 26.3125 33.6875C26.3125 32.875 25.625 32.25 24.8125 32.25Z" fill="white"/>
<path d="M15.125 22.375H25C26.4375 22.375 27.6875 21.1875 27.6875 19.6875V16C27.6875 14.5625 26.5 13.3125 25 13.3125H15.125C13.6875 13.3125 12.4375 14.5 12.4375 16V19.6875C12.5 21.125 13.6875 22.375 15.125 22.375ZM15.3125 16.1875H24.875V19.5625H15.3125V16.1875Z" fill="white"/>
<path d="M10.6875 4.875H32.8125C33.5625 4.875 34.25 4.25 34.25 3.4375C34.25 2.625 33.625 2 32.8125 2H10.6875C8.1875 2 6.1875 3.9375 6 6.375C6 6.4375 6 6.5 6 6.5625V35.9375C6 38.0625 7.8125 39.75 10.0625 39.75H30.625C32.375 39.75 33.8125 38.3125 33.8125 36.5625V11.5625C33.8125 9.8125 32.375 8.375 30.625 8.375H10.5C9.4375 8.375 8.8125 7.75 8.8125 6.75C8.75 5.6875 9.625 4.875 10.6875 4.875ZM10.4375 11.1875C10.5 11.1875 10.5 11.1875 10.4375 11.1875H30.5625C30.75 11.1875 30.9375 11.375 30.9375 11.5625V36.6875C30.9375 36.875 30.75 37.0625 30.5625 37.0625H10C9.3125 37.0625 8.75 36.625 8.75 36.0625V10.9375C9.25 11.125 9.8125 11.1875 10.4375 11.1875Z" fill="white"/>
</svg>
