<svg width="32" height="41" viewBox="0 0 32 41" fill="none" xmlns="http://www.w3.org/2000/svg">
<g clip-path="url(#clip0_97_116)">
<path d="M26.0186 1H5.43655C3.54322 1 2 2.58238 2 4.52815V35.4718C2 37.4163 3.54198 39 5.43655 39H26.0186C27.9119 39 29.4551 37.4176 29.4551 35.4718V4.52688C29.4551 2.58238 27.9119 1 26.0186 1ZM11.7398 3.29515H19.7054L19.6756 7.04899L11.7398 7.00819V3.29515ZM19.7154 36.7023H11.7497L11.7808 32.9497L19.7166 32.9905L19.7154 36.7023ZM27.2191 35.4706C27.2191 36.1502 26.6803 36.7023 26.0186 36.7023H21.9513V32.9905C21.9513 31.7014 20.9308 30.6533 19.6756 30.6533H11.7795C10.5243 30.6533 9.50379 31.7014 9.50379 32.9905V36.7023H5.43655C4.77481 36.7023 4.23599 36.1502 4.23599 35.4706V21.1463H10.0153C10.5392 23.8967 12.8994 25.9814 15.7276 25.9814C18.5558 25.9814 20.9172 23.8967 21.4398 21.1463H27.2191V35.4706ZM19.1219 21.1463C18.6489 22.6152 17.3155 23.685 15.7276 23.685C14.1397 23.685 12.8063 22.6152 12.3332 21.1463H19.1219ZM12.3332 18.8512C12.8063 17.3823 14.1397 16.3125 15.7276 16.3125C17.3155 16.3125 18.6489 17.3823 19.1219 18.8512H12.3332ZM27.2191 18.8512H21.4398C20.9159 16.1008 18.5558 14.016 15.7276 14.016C12.8994 14.016 10.538 16.1008 10.0153 18.8512H4.23599V4.52688C4.23599 3.84726 4.77481 3.29515 5.43655 3.29515H9.50379V7.00691C9.50379 8.29602 10.5243 9.34414 11.7795 9.34414H19.6744C20.9296 9.34414 21.9501 8.29602 21.9501 7.00691V3.29515H26.0173C26.6791 3.29515 27.2179 3.84726 27.2179 4.52688L27.2191 18.8512Z" fill="white" fill-opacity="0.5"/>
</g>
<defs>
<clipPath id="clip0_97_116">
<rect width="32" height="40" fill="white" transform="translate(0 0.5)"/>
</clipPath>
</defs>
</svg>
