<svg width="30" height="40" viewBox="0 0 30 40" fill="none" xmlns="http://www.w3.org/2000/svg">
<path d="M25.0186 1H4.43655C2.54322 1 1 2.58238 1 4.52815V35.4718C1 37.4163 2.54198 39 4.43655 39H25.0186C26.9119 39 28.4551 37.4176 28.4551 35.4718V4.52688C28.4551 2.58238 26.9119 1 25.0186 1ZM10.7398 3.29515H18.7054L18.6756 7.04899L10.7398 7.00819V3.29515ZM18.7154 36.7023H10.7497L10.7808 32.9497L18.7166 32.9905L18.7154 36.7023ZM26.2191 35.4706C26.2191 36.1502 25.6803 36.7023 25.0186 36.7023H20.9513V32.9905C20.9513 31.7014 19.9308 30.6533 18.6756 30.6533H10.7795C9.52433 30.6533 8.50379 31.7014 8.50379 32.9905V36.7023H4.43655C3.77481 36.7023 3.23599 36.1502 3.23599 35.4706V21.1463H9.0153C9.53923 23.8967 11.8994 25.9814 14.7276 25.9814C17.5558 25.9814 19.9172 23.8967 20.4398 21.1463H26.2191V35.4706ZM18.1219 21.1463C17.6489 22.6152 16.3155 23.685 14.7276 23.685C13.1397 23.685 11.8063 22.6152 11.3332 21.1463H18.1219ZM11.3332 18.8512C11.8063 17.3823 13.1397 16.3125 14.7276 16.3125C16.3155 16.3125 17.6489 17.3823 18.1219 18.8512H11.3332ZM26.2191 18.8512H20.4398C19.9159 16.1008 17.5558 14.016 14.7276 14.016C11.8994 14.016 9.53798 16.1008 9.0153 18.8512H3.23599V4.52688C3.23599 3.84726 3.77481 3.29515 4.43655 3.29515H8.50379V7.00691C8.50379 8.29602 9.52433 9.34414 10.7795 9.34414H18.6744C19.9296 9.34414 20.9501 8.29602 20.9501 7.00691V3.29515H25.0173C25.6791 3.29515 26.2179 3.84726 26.2179 4.52688L26.2191 18.8512Z" fill="white"/>
</svg>
