<svg width="52" height="52" viewBox="0 0 52 52" fill="none" xmlns="http://www.w3.org/2000/svg">
<path d="M24.2259 28.1435C30.4837 28.1435 35.5351 23.092 35.5351 16.8343C35.5351 10.5765 30.4837 5.52499 24.2259 5.52499C17.9681 5.52499 12.9166 10.5765 12.9166 16.8343C12.9166 23.092 17.9681 28.1435 24.2259 28.1435ZM24.2259 8.91777C28.5988 8.91777 32.1424 12.4613 32.1424 16.8343C32.1424 21.2072 28.5988 24.7507 24.2259 24.7507C19.853 24.7507 16.3094 21.2072 16.3094 16.8343C16.3094 12.4613 19.853 8.91777 24.2259 8.91777Z" fill="white"/>
<path d="M46.4674 40.5083C40.285 35.306 32.4439 32.441 24.2258 32.441C16.0078 32.441 8.16669 35.306 1.98429 40.5083C1.30574 41.1115 1.15495 42.167 1.75811 42.9209C2.36127 43.5995 3.4168 43.7503 4.17075 43.1471C9.74998 38.3972 16.8371 35.8338 24.2258 35.8338C31.6146 35.8338 38.7017 38.3972 44.2055 43.0717C44.5071 43.3733 44.8841 43.4487 45.3365 43.4487C45.7888 43.4487 46.3166 43.2225 46.6182 42.8456C47.2213 42.167 47.1459 41.1115 46.4674 40.5083Z" fill="white"/>
</svg>
